<svg xmlns="http://www.w3.org/2000/svg" width="100%" height="100%" viewBox="0 0 18 18" fill="currentColor">
<defs><style>.cls-1{stroke-linecap:round;}.cls-1,.cls-2{fill:none;stroke:currentColor;stroke-miterlimit:10;stroke-width:1.12px;}</style></defs>
<g transform="translate(0 1.67)">
<path d="M9,1.58c.28,0,.55.03.82.07,0-.12,0-.24-.02-.37-.02-.36-.51-1.32-.8-1.27-.29-.05-.78.91-.8,1.27-.01.13-.02.25-.02.37.27-.04.54-.07.82-.07Z"/>
<path d="M17.3,6.77c-.99-.1-1.85-.15-2.61-.17.03.24.05.49.05.74s-.02.5-.05.74c.76-.02,1.62-.08,2.61-.17.39-.05.7-.31.7-.56s-.31-.51-.7-.56Z"/>
<path d="M3.25,7.33c0-.25.02-.5.05-.74-.76.02-1.62.08-2.61.17-.39.05-.7.31-.7.56s.31.51.7.56c.99.1,1.85.15,2.61.17-.03-.24-.05-.49-.05-.74Z"/>
<path d="M9,13.08c-.28,0-.55-.03-.82-.07,0,.12,0,.24.02.37.02.36.51,1.32.8,1.27.29.05.78-.91.8-1.27.01-.13.02-.25.02-.37-.27.04-.54.07-.82.07Z"/>
<path class="cls-1" d="M9,11.33c-2.21,0-4-1.79-4-4,0-1.48.8-2.77,2-3.46"/>
<path class="cls-2" d="M13,7.33c0,2.21-1.79,4-4,4"/>
<path class="cls-2" d="M11.54,4.24c.89.73,1.46,1.84,1.46,3.09"/>
<path d="M9,8.08c.41,0,.75-.34.75-.75s-.34-.75-.75-.75-.75.34-.75.75.34.75.75.75Z"/>
<path d="M9.76,2.76l.54,3.06c.04.2.29.28.43.14l2.52-2.52c.15-.15.07-.4-.14-.43l-3.06-.54c-.17-.03-.33.12-.3.3Z"/>
</g>
</svg>
