<svg xmlns="http://www.w3.org/2000/svg" width="100%" height="100%" viewBox="0 0 130 130" id="code"><style>.pixel { fill: currentColor}</style><rect class="pixel" x="20" y="20" width="10" height="10" rx="0" ry="0"/><rect class="pixel" x="30" y="20" width="10" height="10" rx="0" ry="0"/><rect class="pixel" x="40" y="20" width="10" height="10" rx="0" ry="0"/><rect class="pixel" x="80" y="20" width="10" height="10" rx="0" ry="0"/><rect class="pixel" x="90" y="20" width="10" height="10" rx="0" ry="0"/><rect class="pixel" x="20" y="30" width="10" height="10" rx="0" ry="0"/><rect class="pixel" x="100" y="30" width="10" height="10" rx="0" ry="0"/><rect class="pixel" x="20" y="40" width="10" height="10" rx="0" ry="0"/><rect class="pixel" x="100" y="40" width="10" height="10" rx="0" ry="0"/><rect class="pixel" x="20" y="50" width="10" height="10" rx="0" ry="0"/><rect class="pixel" x="100" y="50" width="10" height="10" rx="0" ry="0"/><rect class="pixel" x="20" y="60" width="10" height="10" rx="0" ry="0"/><rect class="pixel" x="110" y="60" width="10" height="10" rx="0" ry="0"/><rect class="pixel" x="20" y="70" width="10" height="10" rx="0" ry="0"/><rect class="pixel" x="100" y="70" width="10" height="10" rx="0" ry="0"/><rect class="pixel" x="20" y="80" width="10" height="10" rx="0" ry="0"/><rect class="pixel" x="100" y="80" width="10" height="10" rx="0" ry="0"/><rect class="pixel" x="20" y="90" width="10" height="10" rx="0" ry="0"/><rect class="pixel" x="100" y="90" width="10" height="10" rx="0" ry="0"/><rect class="pixel" x="20" y="100" width="10" height="10" rx="0" ry="0"/><rect class="pixel" x="30" y="100" width="10" height="10" rx="0" ry="0"/><rect class="pixel" x="40" y="100" width="10" height="10" rx="0" ry="0"/><rect class="pixel" x="80" y="100" width="10" height="10" rx="0" ry="0"/><rect class="pixel" x="90" y="100" width="10" height="10" rx="0" ry="0"/></svg>