<svg xmlns="http://www.w3.org/2000/svg" viewBox="5.64 13.62 38.7 24.87" preserveAspectRatio="xMinYMid meet" width="100%" height="100%" fill="none" stroke="currentColor" stroke-width="0.25"><style>.esl{animation:esF .5s ease-out both}.esd{animation:esFd .5s ease-out both}.es2{animation-delay:.1s}.es3{animation-delay:.2s}@keyframes esF{from{opacity:0}to{opacity:1}}@keyframes esFd{from{opacity:0}to{opacity:.5}}@media(prefers-reduced-motion:reduce){.esl,.esd{animation:none}.esl{opacity:1}.esd{opacity:.5}}</style><g transform="translate(5.865 13.85)"><path d="M36.89,10.4l-19.05,11c-1.67.97-4.6.85-6.53-.27L1.85,15.67c-1.93-1.12-2.14-2.81-.47-3.77L20.43.9c1.67-.97,4.6-.85,6.53.27l9.45,5.46c1.93,1.12,2.14,2.81.47,3.77Z" stroke-linejoin="round" opacity=".13" transform="translate(0 2.1)"/><g class="esd" opacity="0.5"><path d="M36.89,10.4l-19.05,11c-1.67.97-4.6.85-6.53-.27L1.85,15.67c-1.93-1.12-2.14-2.81-.47-3.77L20.43.9c1.67-.97,4.6-.85,6.53.27l9.45,5.46c1.93,1.12,2.14,2.81.47,3.77Z" stroke-dasharray="1.24 1.24" stroke-linecap="round" stroke-linejoin="round"/></g><g class="esl es2" fill="currentColor" stroke="none"><path d="M30.7.9c-10.48,6.05-12.91,5.88-18.76,2.5-.4-.23-1.05-.23-1.45,0s-.4.6,0,.84c5.85,3.37,6.15,4.78-4.33,10.83-.4.23-.4.6,0,.84s1.05.23,1.45,0c10.48-6.05,12.91-5.88,18.76-2.5.4.23,1.05.23,1.45,0s.4-.6,0-.84c-5.85-3.38-6.15-4.78,4.33-10.83.4-.23.4-.6,0-.84s-1.05-.23-1.45,0ZM21.69,9.86c-2.05.21-3.01.21-5.06,0-.36-1.18-.36-1.74,0-2.92,2.05-.21,3.01-.21,5.06,0,.36,1.18.36,1.74,0,2.92Z"/><path d="M19.88,7.98c.4.23.4.6,0,.84s-1.05.23-1.45,0-.4-.6,0-.84,1.05-.23,1.45,0Z"/></g></g></svg>
