<svg xmlns="http://www.w3.org/2000/svg" viewBox="-0.17 -0.18 38.6 24.77" preserveAspectRatio="xMinYMid meet" width="100%" height="100%" fill="none" stroke="currentColor" stroke-width="0.25"><style>.esl{animation:esDrop .55s cubic-bezier(.25,.8,.4,1) both}.esd{animation:esFd .5s ease-out both}.es2{animation-delay:.12s}@keyframes esDrop{from{opacity:0;transform:translateY(-3px)}to{opacity:1;transform:translateY(0)}}@keyframes esFd{from{opacity:0}to{opacity:.5}}@media(prefers-reduced-motion:reduce){.esl,.esd{animation:none}.esl{opacity:1}.esd{opacity:.5}}</style><path d="M36.89,10.4l-19.05,11c-1.67.97-4.6.85-6.53-.27L1.85,15.67c-1.93-1.12-2.14-2.81-.47-3.77L20.43.9c1.67-.97,4.6-.85,6.53.27l9.45,5.46c1.93,1.12,2.14,2.81.47,3.77Z" stroke-linejoin="round" opacity=".12" transform="translate(0 2.1)"/><g class="esd"><path d="M36.89,10.4l-19.05,11c-1.67.97-4.6.85-6.53-.27L1.85,15.67c-1.93-1.12-2.14-2.81-.47-3.77L20.43.9c1.67-.97,4.6-.85,6.53.27l9.45,5.46c1.93,1.12,2.14,2.81.47,3.77Z" stroke-dasharray="1.24 1.24" stroke-linecap="round" stroke-linejoin="round"/></g><g class="esl es2"><path d="M23.66,10.10L23.66,3.99L22.71,4.53L22.71,10.64Z" fill="var(--color-surface)" stroke-linejoin="round"/><path d="M18.88,8.43L18.88,2.32L22.71,4.53L22.71,10.64Z" fill="var(--color-surface)" stroke-linejoin="round"/><path d="M19.83,1.78L23.66,3.99L22.71,4.53L18.88,2.32Z" fill="var(--color-surface)" stroke-linejoin="round"/><path d="M21.40,2.69L21.40,1.78L20.46,2.32L20.46,3.23Z" fill="var(--color-surface)" stroke-linejoin="round"/><path d="M20.28,1.13L21.40,1.78L20.46,2.32L19.33,1.67Z" fill="var(--color-surface)" stroke-linejoin="round"/><path d="M21.63,12.05L21.63,6.20L20.68,6.74L20.68,12.59Z" fill="var(--color-surface)" stroke-linejoin="round"/><path d="M16.86,10.38L16.86,4.53L20.68,6.74L20.68,12.59Z" fill="var(--color-surface)" stroke-linejoin="round"/><path d="M17.80,3.99L21.63,6.20L20.68,6.74L16.86,4.53Z" fill="var(--color-surface)" stroke-linejoin="round"/><path d="M20.62,5.61L20.62,4.70L19.67,5.25L19.67,6.16Z" fill="var(--color-surface)" stroke-linejoin="round"/><path d="M19.49,4.05L20.62,4.70L19.67,5.25L18.54,4.60Z" fill="var(--color-surface)" stroke-linejoin="round"/><path d="M19.60,14.00L19.60,8.41L18.66,8.95L18.66,14.54Z" fill="var(--color-surface)" stroke-linejoin="round"/><path d="M14.83,12.33L14.83,6.74L18.66,8.95L18.66,14.54Z" fill="var(--color-surface)" stroke-linejoin="round"/><path d="M15.78,6.20L19.60,8.41L18.66,8.95L14.83,6.74Z" fill="var(--color-surface)" stroke-linejoin="round"/><path d="M19.72,8.47L19.72,7.56L18.77,8.11L18.77,9.02Z" fill="var(--color-surface)" stroke-linejoin="round"/><path d="M18.59,6.91L19.72,7.56L18.77,8.11L17.64,7.46Z" fill="var(--color-surface)" stroke-linejoin="round"/></g></svg>
