<svg xmlns="http://www.w3.org/2000/svg" viewBox="-0.17 -2.08 38.6 26.67" preserveAspectRatio="xMinYMid meet" width="100%" height="100%" fill="none" stroke="currentColor" stroke-width="0.25"><style>.esl{animation:esDrop .55s cubic-bezier(.25,.8,.4,1) both}.esd{animation:esFd .5s ease-out both}.es1{animation-delay:.04s}.es2{animation-delay:.17s}.es3{animation-delay:.3s}@keyframes esDrop{from{opacity:0;transform:translateY(-3px)}to{opacity:1;transform:translateY(0)}}@keyframes esFd{from{opacity:0}to{opacity:.5}}@media(prefers-reduced-motion:reduce){.esl,.esd{animation:none}.esl{opacity:1}.esd{opacity:.5}}</style><path d="M36.89,10.4l-19.05,11c-1.67.97-4.6.85-6.53-.27L1.85,15.67c-1.93-1.12-2.14-2.81-.47-3.77L20.43.9c1.67-.97,4.6-.85,6.53.27l9.45,5.46c1.93,1.12,2.14,2.81.47,3.77Z" stroke-linejoin="round" opacity=".12" transform="translate(0 2.1)"/><g class="esd"><path d="M36.89,10.4l-19.05,11c-1.67.97-4.6.85-6.53-.27L1.85,15.67c-1.93-1.12-2.14-2.81-.47-3.77L20.43.9c1.67-.97,4.6-.85,6.53.27l9.45,5.46c1.93,1.12,2.14,2.81.47,3.77Z" stroke-dasharray="1.24 1.24" stroke-linecap="round" stroke-linejoin="round"/></g><path class="esl es1" d="M19.97,4.42L21.19,4.42L30.78,9.96L30.78,10.66L18.29,17.88L17.07,17.88L7.48,12.34L7.48,11.64Z" fill="var(--color-surface)" stroke-linejoin="round"/><path class="esl es2" d="M21.64,1.42L22.84,1.57L30.92,7.75L30.84,8.46L16.62,14.64L15.42,14.49L7.34,8.31L7.42,7.60Z" fill="var(--color-surface)" stroke-linejoin="round"/><path class="esl es3" d="M23.24,-1.45L24.40,-1.16L30.83,5.55L30.65,6.26L15.02,11.27L13.86,10.98L7.43,4.27L7.61,3.56Z" fill="var(--color-surface)" stroke-linejoin="round"/></svg>
