<svg width="319" height="50" viewBox="0 0 319 50" fill="none" xmlns="http://www.w3.org/2000/svg">
<path d="M119.799 48.2568V10.9961H129.736L140.59 32.1646L151.39 10.9961H161.002V48.2568H152.956V25.1982L143.506 43.667H137.35L127.846 25.1982V48.2568H119.799ZM165.753 48.2568L179.955 10.9961H189.243L203.5 48.2568H194.428L191.835 41.0747H177.201L174.555 48.2568H165.753ZM179.955 33.4604H189.082L184.491 20.9326L179.955 33.4604ZM204.686 29.6265C204.686 18.7725 213.056 10.4561 223.91 10.4561C231.524 10.4561 237.95 14.6685 241.028 21.1484L233.415 24.7124C231.74 20.8784 228.284 18.4482 223.91 18.4482C217.646 18.4482 213.11 23.2002 213.11 29.6265C213.11 36.0527 217.646 40.8047 223.91 40.8047C228.284 40.8047 231.74 38.3745 233.415 34.5405L241.028 38.1045C237.95 44.585 231.524 48.7969 223.91 48.7969C213.056 48.7969 204.686 40.4805 204.686 29.6265ZM246.967 48.2568V10.9961H262.736C269.81 10.9961 275.156 16.5044 275.156 23.6865C275.156 28.8164 272.564 32.8667 268.676 34.8647L276.128 48.2568H266.786L260.251 36.3228H255.445V48.2568H246.967ZM255.445 28.4927H261.602C264.68 28.4927 266.732 26.6025 266.732 23.6865C266.732 20.7163 264.68 18.8262 261.602 18.8262H255.445V28.4927ZM280.016 29.6265C280.016 18.7725 288.439 10.4561 299.348 10.4561C310.256 10.4561 318.68 18.7725 318.68 29.6265C318.68 40.4805 310.256 48.7969 299.348 48.7969C288.439 48.7969 280.016 40.4805 280.016 29.6265ZM310.202 29.6265C310.202 23.1465 305.558 18.4482 299.348 18.4482C293.083 18.4482 288.439 23.1465 288.439 29.6265C288.439 36.1064 293.083 40.8047 299.348 40.8047C305.558 40.8047 310.202 36.1064 310.202 29.6265Z" fill="#333C66"/>
<path d="M32.6802 15.4471L33.0693 15.1332L32.6802 15.4471L38.7366 22.9541L31.9102 37.3366L17.2419 49.5H7.40761C4.95706 49.5 2.72439 48.0924 1.66783 45.8813C0.611289 43.6702 0.91874 41.0488 2.45823 39.1422L21.5927 15.4448C22.9455 13.7694 24.9836 12.7958 27.137 12.7963C29.2904 12.7967 31.328 13.7712 32.6802 15.4471Z" fill="url(#paint0_linear_470_2)" stroke="black"/>
<path d="M98.71 37.8042C100.449 39.9568 100.796 42.9167 99.6036 45.4136C98.4108 47.9104 95.8898 49.5 93.1227 49.5H61.4199L47.7939 36.6286L39.9283 22.9325L54.7372 4.59657C56.8295 2.0059 59.981 0.500146 63.311 0.5C66.6411 0.499854 69.7927 2.00538 71.8852 4.59587L98.71 37.8042Z" fill="url(#paint1_linear_470_2)" stroke="black"/>
<path d="M65.3027 49.5001H15.289C18.1859 48.4594 20.7815 46.6381 22.7617 44.1864L39.3242 23.6806L54.0416 41.9054C56.9828 45.5475 60.9218 48.1676 65.3027 49.5001Z" fill="url(#paint2_linear_470_2)" stroke="black"/>
<defs>
<linearGradient id="paint0_linear_470_2" x1="0.704605" y1="45.8885" x2="36.6763" y2="19.8173" gradientUnits="userSpaceOnUse">
<stop stop-color="#568FFF"/>
<stop offset="1" stop-color="#4918BD"/>
</linearGradient>
<linearGradient id="paint1_linear_470_2" x1="96.1086" y1="25" x2="42.8807" y2="25" gradientUnits="userSpaceOnUse">
<stop stop-color="#1AB0E2"/>
<stop offset="0.557813" stop-color="#43D2ED"/>
<stop offset="1" stop-color="#5FE9F5"/>
</linearGradient>
<linearGradient id="paint2_linear_470_2" x1="9.34229" y1="36.4424" x2="73.1171" y2="36.4424" gradientUnits="userSpaceOnUse">
<stop stop-color="#1AD1E2"/>
<stop offset="0.382163" stop-color="#27B5EC"/>
<stop offset="0.999227" stop-color="#4080FF"/>
</linearGradient>
</defs>
</svg>
