<svg fill="none" stroke="currentColor" stroke-linecap="square" stroke-linejoin="round" stroke-width="1.5" viewBox="0 0 24 24" xmlns="http://www.w3.org/2000/svg">
 <path d="m7 8.9997a3 3 0 0 1-2.7716-1.8519 3 3 0 0 1 0.65032-3.2694 3 3 0 0 1 3.2694-0.65032 3 3 0 0 1 1.8519 2.7716"/>
 <path d="m2 15.5v-2c0-0.5304 0.21071-1.0391 0.58579-1.4142 0.37507-0.3751 0.88378-0.5858 1.4142-0.5858h3"/>
 <path d="m5 21v-3c0-1.1046 0.89543-2 2-2h10c1.1046 0 2 0.89543 2 2v3"/>
 <path d="m14.062 6a3 3 0 0 1 3-3 3 3 0 0 1 3 3 3 3 0 0 1-3 3"/>
 <path d="m17 11.5h3c1.1046 0 2 0.89543 2 2v2"/>
 <circle cx="12" cy="10.75" r="3"/>
</svg>
