<svg fill="none" stroke="currentColor" stroke-linecap="butt" stroke-linejoin="round" stroke-width="1.5" viewBox="0 0 24 24" xmlns="http://www.w3.org/2000/svg">
    <path fill="currentColor" d="M 12.000513,4.7226562 A 2.2036,2.2036 0 0 0 10.930201,5 L 4.0825436,8.8046875 a 0.68799,0.68799 0 0 0 0,1.2031255 l 6.8359384,3.796875 a 2.2291,2.2291 0 0 0 2.164062,0 l 6.835938,-3.798829 a 0.6875,0.6875 0 0 0 0,-1.2011715 L 13.070826,5 A 2.2036,2.2036 0 0 0 12.000513,4.7226562 Z"/>
    <path d="M 11.999823,9.9179688 A 2.2036,2.2036 0 0 0 10.929511,10.195313 L 4.0818549,14 a 0.68799,0.68799 0 0 0 0,1.203125 L 10.917792,19 a 2.2291,2.2291 0 0 0 2.164062,0 l 6.835938,-3.796875 a 0.6875,0.6875 0 0 0 0,-1.203125 L 13.070136,10.195313 A 2.2036,2.2036 0 0 0 11.999823,9.9179688 Z"/>
</svg>
