<svg viewBox="0 0 343 33" fill="none" xmlns="http://www.w3.org/2000/svg">
  <path d="M59.1391 0.998425C54.3907 0.998425 50.4613 4.89911 50.4613 9.61333V25.6119H57.8837V32.9936H95.0912V25.6095L57.8837 25.6119L57.8997 9.61333C57.8997 8.88984 58.4107 8.38252 59.1391 8.38252H95.0912V0.998425H59.1391Z" fill="currentColor"/>
  <path d="M194.15 8.38251V0.998425H158.29C153.541 0.998425 149.612 4.89911 149.612 9.61293V25.5713L157.05 25.558V32.996H194.15V25.5713L157.05 25.558V20.6689H186.803V13.2849H157.05V9.61333C157.05 8.88983 157.561 8.38251 158.29 8.38251H194.15Z" fill="currentColor"/>
  <path d="M342.798 8.38251V0.998425H306.937C302.189 0.998425 298.26 4.89911 298.26 9.61293V25.5713L305.698 25.558V32.996H342.798V25.5713L305.698 25.558V20.6689H335.451V13.2849H305.698V9.61333C305.698 8.88983 306.209 8.38251 306.937 8.38251H342.798Z" fill="currentColor"/>
  <path d="M206.534 0.998425V8.38251H235.047C235.776 8.38251 236.287 8.88983 236.287 9.61333V15.7666H206.534V8.38251H199.095V32.996H206.534V23.1507H236.287V32.996H243.725V9.61293C243.725 4.89911 239.796 0.998425 235.047 0.998425H206.534Z" fill="currentColor"/>
  <path d="M107.475 0.998425V8.38252H135.988C136.717 8.38252 137.228 8.88984 137.228 9.61333V14.5362C137.228 15.2597 136.717 15.767 135.988 15.767H107.475V8.38252L100.037 8.38291V32.9964H107.475V23.1511H130.59L135.549 32.9964H143.866L138.67 22.6803C142.122 21.5391 144.666 18.3183 144.666 14.5366V9.61373C144.666 4.89911 140.737 0.998425 135.988 0.998425H107.475Z" fill="currentColor"/>
  <path d="M16.2025 0.998425V14.3053H0.326904V19.6894H16.2025V32.9964H21.6404V19.6894H37.516V14.3053H21.6404V0.998425H16.2025Z" fill="currentColor"/>
  <path d="M262.826 0.9964V8.3805L248.671 8.38011V0.996403L262.826 0.9964Z" fill="currentColor"/>
  <path d="M293.314 8.3805V0.99641L275.958 0.977644C271.21 0.977644 267.28 4.87833 267.28 9.59215V32.996H274.718L274.718 9.59254C274.718 8.86905 275.229 8.36173 275.958 8.36173L293.314 8.3805Z" fill="currentColor"/>
</svg>
