<svg viewBox="0 0 293 33" xmlns="http://www.w3.org/2000/svg">
<path d="M8.67784 0.0207697C3.92936 0.0207697 0 3.92145 0 8.63567V24.6343H7.4224V32.016H44.6299V24.6319L7.4224 24.6343L7.43839 8.63567C7.43839 7.91218 7.94943 7.40486 8.67784 7.40486H44.6299V0.0207697H8.67784Z" fill="currentColor"/>
<path d="M143.689 7.40486V0.0207697H107.828C103.08 0.0207697 99.1504 3.92145 99.1504 8.63527V24.5936L106.588 24.5804V32.0184H143.689V24.5936L106.588 24.5804V19.6913H136.342V12.3072H106.588V8.63567C106.588 7.91218 107.099 7.40486 107.828 7.40486H143.689Z" fill="currentColor"/>
<path d="M292.337 7.40486V0.0207697H256.476C251.728 0.0207697 247.798 3.92145 247.798 8.63527V24.5936L255.236 24.5804V32.0184H292.337V24.5936L255.236 24.5804V19.6913H284.99V12.3072H255.236V8.63567C255.236 7.91218 255.747 7.40486 256.476 7.40486H292.337Z" fill="currentColor"/>
<path d="M156.072 0.0207697V7.40486H184.586C185.315 7.40486 185.826 7.91218 185.826 8.63567V14.7889H156.072V7.40486H148.634V32.0184H156.072V22.173H185.826V32.0184H193.264V8.63527C193.264 3.92145 189.335 0.0207697 184.586 0.0207697H156.072Z" fill="currentColor"/>
<path d="M57.0136 0.0207697V7.40486H85.5269C86.2557 7.40486 86.7667 7.91218 86.7667 8.63567V13.5585C86.7667 14.282 86.2557 14.7893 85.5269 14.7893H57.0136V7.40486L49.5752 7.40526V32.0188H57.0136V22.1734H80.1287L85.0873 32.0188H93.4048L88.2088 21.7026C91.6603 20.5614 94.2051 17.3406 94.2051 13.5589V8.63607C94.2051 3.92145 90.2757 0.0207697 85.5269 0.0207697H57.0136Z" fill="currentColor"/>
<path d="M212.364 0.0187531V7.40286L198.209 7.40247V0.0187607L212.364 0.0187531Z" fill="currentColor"/>
<path d="M242.853 7.40286V0.0187607L225.497 0C220.748 0 216.819 3.90068 216.819 8.6145V32.0184H224.257L224.257 8.6149C224.257 7.8914 224.768 7.38409 225.497 7.38409L242.853 7.40286Z" fill="currentColor"/>
</svg>
