<svg fill="none" stroke="currentColor" stroke-linecap="butt" stroke-linejoin="round" stroke-width="1.5" viewBox="0 0 24 24" xmlns="http://www.w3.org/2000/svg">
  <path d="m12 5.2255c0.0032-1.0537-0.5649-2.0264-1.4842-2.5414-0.91933-0.51502-2.0455-0.49155-2.9426 0.06134-0.89704 0.55288-1.4241 1.5484-1.3771 2.601-1.1527 0.29636-2.1049 1.1064-2.5822 2.1966-0.4773 1.0902-0.42656 2.3394 0.13758 3.3872-0.9939 0.8074-1.5242 2.0541-1.4165 3.33 0.10769 1.276 0.83943 2.4161 1.9546 3.0456-0.18484 1.43 0.44049 2.8442 1.6227 3.6698s2.7253 0.9257 4.0044 0.2598c1.279-0.6659 2.0819-1.9874 2.0834-3.4293z"/>
  <path d="m12 5.2255c-0.0031-1.0537 0.565-2.0264 1.4843-2.5414 0.9193-0.51502 2.0455-0.49155 2.9426 0.06134 0.897 0.55288 1.4241 1.5484 1.377 2.601 1.1527 0.29636 2.105 1.1064 2.5823 2.1966 0.4773 1.0902 0.4265 2.3394-0.1376 3.3872 0.9939 0.8074 1.5242 2.0541 1.4165 3.33-0.1077 1.276-0.8394 2.4161-1.9546 3.0456 0.1848 1.43-0.4405 2.8442-1.6227 3.6698s-2.7253 0.9257-4.0043 0.2598-2.0819-1.9874-2.0835-3.4293z"/>
  <path d="m14.904 12.968c-1.6617-0.5845-2.8076-2.1122-2.9034-3.871-0.0959 1.7588-1.2418 3.2865-2.9034 3.871"/>
  <path d="m17.419 6.6772c0.2342-0.40589 0.3667-0.86245 0.3861-1.3307"/>
  <path d="m6.1962 5.3465c0.01914 0.46813 0.1513 0.92468 0.38519 1.3307"/>
  <path d="m3.7515 10.931c0.17705-0.1442 0.36651-0.2724 0.56616-0.3832"/>
  <path d="m19.682 10.548c0.1997 0.1108 0.3892 0.239 0.5662 0.3832"/>
  <path d="m6.1932 17.806c-0.66698 3e-4 -1.3227-0.1717-1.9037-0.4994"/>
  <path d="m19.71 17.307c-0.5809 0.3277-1.2367 0.4997-1.9036 0.4994"/>
</svg>
